<svg xmlns="http://www.w3.org/2000/svg" viewBox="0 0 800 450" fill="none">
  <rect width="800" height="450" fill="#0a0d14"/>
  <rect x="40" y="40" width="720" height="40" rx="8" fill="#111827" opacity="0.6"/>
  <circle cx="65" cy="60" r="6" fill="#ef4444" opacity="0.5"/>
  <circle cx="85" cy="60" r="6" fill="#eab308" opacity="0.5"/>
  <circle cx="105" cy="60" r="6" fill="#22c55e" opacity="0.5"/>
  <rect x="40" y="100" width="340" height="310" rx="12" fill="#111827" opacity="0.4"/>
  <rect x="420" y="100" width="340" height="310" rx="12" fill="#111827" opacity="0.4"/>
  <rect x="60" y="130" width="120" height="8" rx="4" fill="#7c8df0" opacity="0.3"/>
  <rect x="60" y="155" width="280" height="6" rx="3" fill="#ffffff" opacity="0.08"/>
  <rect x="60" y="175" width="250" height="6" rx="3" fill="#ffffff" opacity="0.08"/>
  <rect x="60" y="220" width="80" height="32" rx="16" fill="#34d399" opacity="0.2"/>
  <rect x="440" y="130" width="140" height="8" rx="4" fill="#7c8df0" opacity="0.3"/>
  <rect x="440" y="155" width="280" height="6" rx="3" fill="#ffffff" opacity="0.08"/>
  <rect x="440" y="175" width="260" height="6" rx="3" fill="#ffffff" opacity="0.08"/>
  <rect x="440" y="220" width="100" height="32" rx="16" fill="#7c8df0" opacity="0.2"/>
  <text x="400" y="430" text-anchor="middle" fill="#34d399" font-family="monospace" font-size="18" opacity="0.6">WageShield</text>
</svg>
